M48
; DRILL file {KiCad 9.0.7} date 2026-04-30T15:37:45+0200
; FORMAT={-:-/ absolute / metric / decimal}
; #@! TF.CreationDate,2026-04-30T15:37:45+02:00
; #@! TF.GenerationSoftware,Kicad,Pcbnew,9.0.7
; #@! TF.FileFunction,Plated,1,2,PTH
FMAT,2
METRIC
; #@! TA.AperFunction,Plated,PTH,ViaDrill
T1C0.300
; #@! TA.AperFunction,Plated,PTH,ViaDrill
T2C0.400
; #@! TA.AperFunction,Plated,PTH,ViaDrill
T3C0.500
; #@! TA.AperFunction,Plated,PTH,ComponentDrill
T4C1.000
; #@! TA.AperFunction,Plated,PTH,ComponentDrill
T5C1.100
; #@! TA.AperFunction,Plated,PTH,ComponentDrill
T6C1.300
; #@! TA.AperFunction,Plated,PTH,ComponentDrill
T7C1.600
; #@! TA.AperFunction,Plated,PTH,ComponentDrill
T8C1.700
; #@! TA.AperFunction,Plated,PTH,ComponentDrill
T9C3.200
%
G90
G05
T1
X93.8Y-92.3
X95.0Y-91.2
X95.8Y-61.5
X96.2Y-92.3
X102.2Y-60.7
X103.062Y-90.037
X110.8Y-83.9
X111.0Y-80.9
X112.1Y-79.6
X112.1Y-82.2
X112.1Y-85.3
X116.0Y-73.5
X116.1Y-70.4
X117.1Y-80.9
X117.1Y-87.1
X117.4Y-72.1
X120.5Y-105.7
X120.7Y-73.0
X121.3Y-104.7
X121.3Y-106.8
X121.8Y-79.8
X121.9Y-74.4
X121.9Y-87.9
X122.8Y-89.0
X122.9Y-78.6
X122.9Y-87.0
X123.43Y-80.861
X124.0Y-74.6
X124.25Y-91.05
X124.3Y-92.5
X124.881Y-105.403
X124.9Y-106.2
X125.0Y-76.7
X125.0Y-78.0
X125.3Y-104.3
X125.6Y-106.8
X126.4Y-106.2
X126.5Y-105.4
X128.8Y-81.9
X128.8Y-89.0
X128.9Y-87.5
X129.9Y-86.1
X130.9Y-95.9
X131.0Y-94.7
X131.2Y-92.421
X132.6Y-95.8
X135.1Y-84.4
X135.6Y-98.4
X135.6Y-100.8
X136.0Y-95.5
X136.2Y-97.6
X136.3Y-96.2
X137.0Y-99.7
X137.4Y-97.1
X137.9Y-74.22
X137.9Y-84.4
X138.2Y-89.5
X138.4Y-96.3
X138.5Y-85.4
X138.6Y-75.1
X139.6Y-76.0
X139.7Y-86.4
X140.7Y-75.2
X140.8Y-85.4
X141.6Y-75.2
X142.2Y-109.5
X142.8Y-76.2
X143.6Y-109.5
X144.0Y-75.2
X147.0Y-75.5
X149.1Y-71.0
X149.4Y-93.4
X149.5Y-69.3
X149.5Y-76.7
X149.5Y-91.6
X149.6Y-78.5
X149.6Y-81.8
X149.7Y-96.9
X149.8Y-80.3
X150.0Y-95.0
X150.5Y-70.3
X150.5Y-77.8
X150.5Y-81.0
X150.5Y-92.7
X150.5Y-107.7
X150.7Y-95.7
X151.0Y-109.3
X151.5Y-82.0
X151.6Y-69.3
X151.6Y-91.6
X151.7Y-76.7
X151.7Y-96.8
X151.7Y-106.6
X154.35Y-53.7
X164.2Y-104.1
X164.3Y-89.6
X164.3Y-96.8
X164.6Y-69.4
X164.6Y-75.1
X164.75Y-82.95
X165.6Y-64.9
X165.6Y-102.9
X165.7Y-88.7
X165.7Y-95.8
X166.0Y-70.7
X166.0Y-73.9
X166.0Y-81.75
X167.0Y-104.1
X167.1Y-89.6
X167.1Y-96.8
X167.4Y-69.5
X167.4Y-75.1
X167.4Y-82.95
X169.6Y-108.2
X169.6Y-112.0
X170.1Y-99.9
X170.1Y-103.95
X170.2Y-88.6
X171.8Y-84.7
X171.9Y-77.4
X171.9Y-81.9
X172.0Y-70.0
X172.0Y-75.2
T2
X98.0Y-78.4
X100.7Y-78.5
T3
X93.725Y-87.4
X95.025Y-86.3
X96.525Y-87.5
X97.925Y-86.2
X101.225Y-84.8
X103.325Y-86.6
T4
X96.36Y-103.1
X98.9Y-103.1
X101.44Y-103.1
X103.98Y-103.1
X106.52Y-103.1
X115.6Y-101.1
X115.64Y-104.7
X116.705Y-114.16
X118.09Y-117.0
X119.475Y-114.16
X120.86Y-117.0
X122.245Y-114.16
X123.63Y-117.0
X125.015Y-114.16
X126.4Y-117.0
X127.2Y-102.8
X127.785Y-114.16
X130.8Y-102.8
X145.1Y-101.1
X145.1Y-104.7
X151.405Y-114.16
X152.79Y-117.0
X154.175Y-114.16
X155.56Y-117.0
X156.945Y-114.16
X158.33Y-117.0
X159.715Y-114.16
X161.1Y-117.0
X162.485Y-114.16
T5
X136.75Y-43.25
X136.75Y-49.75
X141.25Y-43.25
X141.25Y-49.75
X147.6Y-43.2
X147.6Y-49.7
X152.1Y-43.2
X152.1Y-49.7
X155.92Y-69.25
X155.92Y-106.0
X155.96Y-76.65
X155.96Y-84.05
X155.96Y-91.45
X155.96Y-98.85
X158.3Y-43.1
X158.3Y-49.6
X158.46Y-69.25
X158.46Y-106.0
X158.5Y-76.65
X158.5Y-84.05
X158.5Y-91.45
X158.5Y-98.85
X161.0Y-69.25
X161.0Y-106.0
X161.04Y-76.65
X161.04Y-84.05
X161.04Y-91.45
X161.04Y-98.85
X162.8Y-43.1
X162.8Y-49.6
X169.0Y-43.1
X169.0Y-49.6
X173.5Y-43.1
X173.5Y-49.6
X179.5Y-43.0
X179.5Y-49.5
X184.0Y-43.0
X184.0Y-49.5
X189.95Y-42.95
X189.95Y-49.45
X194.45Y-42.95
X194.45Y-49.45
T6
X101.15Y-49.375
X106.15Y-49.375
X119.9Y-39.9
X119.9Y-46.3
X119.9Y-65.2
X127.52Y-43.1
X127.52Y-65.2
X187.1Y-109.6
X187.1Y-114.6
X187.167Y-70.15
X187.167Y-75.15
X187.172Y-96.565
X187.172Y-101.645
X187.2Y-57.1
X187.2Y-62.1
X187.3Y-83.3
X187.3Y-88.3
T7
X148.96Y-58.2
X164.2Y-58.2
T8
X134.998Y-60.95
X138.957Y-60.95
T9
X109.745Y-117.0
X134.745Y-117.0
X144.445Y-117.0
X169.445Y-117.0
M30
